<?xml version="1.0" standalone="no"?>
<!DOCTYPE svg PUBLIC "-//W3C//DTD SVG 20010904//EN"
 "http://www.w3.org/TR/2001/REC-SVG-20010904/DTD/svg10.dtd">
<svg version="1.0" xmlns="http://www.w3.org/2000/svg"
 width="3352.000000pt" height="2911.000000pt" viewBox="0 0 3352.000000 2911.000000"
 preserveAspectRatio="xMidYMid meet">
<metadata>
Created by potrace 1.16, written by Peter Selinger 2001-2019
</metadata>
<g transform="translate(0.000000,2911.000000) scale(0.100000,-0.100000)"
fill="#000000" stroke="none">
<path d="M19835 19730 c-44 -4 -102 -13 -130 -19 -27 -6 -120 -15 -206 -20
-109 -6 -165 -13 -187 -25 -17 -9 -74 -21 -127 -26 -53 -6 -105 -14 -115 -20
-10 -5 -52 -17 -92 -25 -40 -9 -82 -22 -93 -29 -11 -7 -45 -19 -75 -25 -30 -7
-64 -18 -75 -25 -11 -7 -45 -19 -75 -25 -30 -7 -64 -18 -75 -25 -11 -7 -38
-19 -60 -26 -22 -7 -47 -18 -55 -25 -8 -7 -35 -18 -60 -25 -25 -7 -52 -18 -60
-25 -8 -7 -39 -20 -67 -30 -29 -9 -53 -20 -53 -25 0 -5 -13 -11 -30 -15 -16
-3 -39 -15 -52 -25 -13 -10 -39 -25 -58 -34 -19 -9 -57 -30 -85 -46 -27 -16
-66 -37 -85 -46 -31 -15 -67 -39 -110 -77 -8 -7 -40 -31 -70 -52 -30 -22 -61
-47 -68 -57 -7 -10 -18 -18 -24 -18 -6 0 -20 -9 -32 -20 -12 -11 -40 -37 -63
-56 -24 -20 -43 -40 -43 -45 0 -5 -54 -63 -120 -129 -66 -66 -120 -126 -120
-134 0 -8 -9 -18 -20 -21 -11 -3 -20 -13 -20 -21 0 -21 28 -17 35 5 3 10 14
21 25 24 11 3 24 17 30 31 5 14 16 26 24 26 8 0 16 10 18 23 2 14 11 23 24 25
12 2 24 12 27 23 3 11 14 23 25 26 11 3 22 14 25 25 3 11 15 22 26 25 12 3 21
11 21 19 0 7 14 20 30 29 17 9 30 20 30 25 0 5 10 15 23 22 60 34 92 55 115
76 14 12 31 22 39 22 7 0 16 7 20 15 3 9 24 25 47 37 22 11 43 24 46 27 3 4
44 26 92 49 48 24 90 47 93 52 3 4 22 14 43 21 20 6 44 17 52 24 8 7 39 20 67
29 29 10 55 22 58 26 3 5 25 14 48 21 23 6 49 17 57 24 8 7 40 18 70 25 30 7
64 19 75 26 11 7 47 18 80 24 33 7 67 18 75 25 8 8 47 19 85 26 39 6 82 18 97
25 15 8 70 19 123 24 52 5 112 17 133 26 26 11 89 19 207 25 94 5 199 13 235
19 84 12 237 13 353 0 51 -5 191 -14 312 -19 173 -6 228 -12 253 -25 17 -9 70
-20 117 -25 49 -5 95 -15 110 -25 15 -10 53 -22 87 -27 33 -5 70 -16 81 -23
12 -8 49 -19 82 -26 33 -7 70 -18 83 -26 12 -8 45 -19 74 -24 28 -6 59 -17 67
-24 9 -8 37 -20 64 -26 26 -7 47 -16 47 -20 0 -5 17 -14 38 -20 20 -7 48 -19
62 -28 33 -21 97 -57 138 -77 34 -16 234 -150 287 -191 17 -13 43 -34 59 -46
65 -52 82 -67 166 -153 107 -109 130 -134 130 -142 0 -3 12 -20 28 -38 15 -18
38 -52 52 -75 14 -24 37 -61 52 -84 15 -23 28 -48 28 -56 0 -8 9 -31 19 -51
11 -20 25 -56 31 -80 7 -24 18 -51 26 -60 8 -8 18 -39 24 -67 5 -29 17 -67 27
-84 15 -29 18 -60 17 -228 0 -135 -4 -204 -13 -225 -7 -16 -19 -69 -27 -118
-8 -48 -23 -104 -34 -125 -11 -20 -20 -42 -20 -49 0 -17 -108 -225 -123 -238
-7 -5 -20 -27 -29 -47 -10 -21 -22 -38 -27 -38 -5 0 -12 -8 -16 -19 -3 -10
-24 -38 -46 -62 -22 -24 -47 -58 -55 -76 -19 -44 -88 -110 -234 -223 -18 -14
-49 -38 -70 -55 -192 -153 -277 -208 -416 -274 -23 -11 -45 -24 -48 -29 -3 -6
-19 -13 -36 -17 -16 -3 -39 -14 -52 -24 -13 -10 -40 -23 -60 -30 -20 -7 -41
-18 -48 -26 -6 -7 -34 -19 -63 -25 -29 -7 -59 -18 -67 -25 -8 -7 -37 -17 -63
-24 -27 -6 -59 -18 -70 -25 -12 -8 -53 -19 -92 -26 -38 -6 -77 -18 -86 -26 -8
-7 -51 -19 -95 -25 -43 -6 -89 -17 -102 -25 -13 -8 -61 -19 -108 -25 -47 -5
-100 -17 -116 -25 -45 -23 -301 -42 -322 -25 -14 12 -16 102 -16 845 0 696 -2
840 -14 877 -8 24 -20 82 -25 128 -6 47 -17 92 -25 100 -8 9 -17 33 -21 54 -4
21 -14 44 -21 52 -8 7 -23 34 -34 59 -10 25 -23 46 -27 46 -5 0 -14 14 -22 31
-18 42 -212 234 -261 259 -21 11 -41 24 -44 29 -4 5 -23 15 -44 22 -20 6 -44
18 -53 25 -9 8 -42 19 -75 25 -32 6 -67 18 -78 27 -17 16 -144 17 -1665 17
-1522 0 -1649 -1 -1691 -17 -25 -9 -72 -22 -104 -27 -33 -6 -66 -17 -75 -24
-9 -8 -38 -20 -64 -27 -27 -7 -51 -19 -54 -26 -2 -7 -18 -16 -33 -19 -16 -4
-39 -14 -52 -24 -13 -10 -37 -22 -53 -28 -39 -13 -129 -100 -723 -696 -268
-268 -1160 -1162 -1982 -1986 -822 -824 -1502 -1507 -1511 -1518 -9 -11 -24
-35 -35 -54 -10 -19 -25 -38 -32 -44 -13 -11 -38 -54 -71 -121 -10 -23 -24
-45 -29 -48 -6 -3 -16 -23 -23 -44 -6 -20 -17 -44 -24 -52 -7 -8 -19 -35 -25
-60 -7 -25 -18 -57 -26 -72 -8 -15 -19 -62 -25 -105 -5 -43 -17 -100 -26 -128
-23 -69 -22 -322 1 -392 9 -26 20 -81 25 -121 5 -41 16 -81 25 -90 8 -10 20
-40 26 -67 6 -27 17 -56 24 -65 7 -8 19 -31 26 -50 7 -19 18 -39 25 -45 6 -5
17 -24 24 -42 7 -17 21 -39 32 -49 10 -9 19 -21 19 -27 0 -5 12 -23 26 -41 33
-39 2463 -2474 2560 -2564 153 -143 268 -232 300 -232 6 0 17 -6 23 -14 7 -8
25 -18 41 -21 16 -4 40 -15 52 -25 13 -10 44 -23 68 -30 25 -6 56 -18 68 -27
14 -8 67 -19 125 -24 56 -5 125 -16 154 -24 69 -20 213 -20 261 1 20 8 79 20
129 25 51 4 103 15 115 23 13 8 48 19 80 25 31 5 73 19 94 30 21 12 46 21 54
21 8 0 40 18 70 40 30 22 69 47 85 56 17 9 38 24 47 33 19 18 62 54 128 107
58 46 3927 3911 3989 3984 25 30 55 66 66 79 11 13 41 46 67 74 27 30 49 64
53 84 3 18 10 33 16 33 5 0 19 21 30 47 11 26 25 50 30 54 6 3 13 26 16 50 3
24 16 62 28 84 17 30 24 63 29 131 3 50 12 107 21 127 13 31 15 115 15 571 0
385 3 542 12 561 10 23 17 25 72 26 219 1 464 18 500 33 22 9 90 21 152 26 63
5 126 15 142 24 16 8 69 20 118 26 49 6 98 17 110 25 12 7 48 18 81 24 32 6
77 20 98 31 22 11 53 20 70 20 16 0 50 11 75 24 25 13 61 27 80 31 19 4 42 13
50 20 8 7 38 18 67 25 29 6 57 18 64 26 6 8 30 19 53 25 22 6 48 17 56 24 8 7
33 18 55 25 22 7 51 21 64 31 13 11 30 19 37 19 8 0 23 9 34 20 11 11 34 27
52 35 62 31 114 60 129 73 13 12 25 21 107 73 17 12 32 24 32 29 0 4 14 13 30
20 17 7 30 16 30 21 0 5 15 16 33 25 40 21 37 18 186 161 105 101 206 211 299
329 12 16 22 34 22 40 0 7 6 19 14 26 7 8 21 30 31 48 10 19 23 42 30 50 6 8
18 31 25 50 7 19 19 42 25 50 6 8 18 31 25 50 7 19 19 42 26 50 7 8 17 42 23
74 6 33 18 70 27 84 10 15 19 62 24 121 5 53 14 110 20 126 7 17 14 78 17 137
5 85 2 117 -10 150 -9 24 -21 84 -26 135 -5 50 -16 102 -24 115 -9 13 -20 49
-27 80 -6 32 -15 60 -20 63 -5 3 -16 29 -26 58 -9 28 -21 57 -26 64 -5 7 -19
30 -31 52 -54 98 -70 126 -77 131 -4 3 -12 14 -18 25 -23 42 -326 357 -402
418 -19 15 -42 34 -50 41 -26 24 -119 86 -129 86 -5 0 -12 7 -15 15 -3 9 -19
21 -36 26 -16 6 -30 15 -30 20 0 9 -46 35 -136 78 -23 11 -45 24 -48 29 -3 6
-23 16 -44 23 -20 6 -44 17 -52 24 -8 7 -33 18 -55 25 -22 7 -56 21 -75 31
-19 11 -42 19 -50 19 -8 0 -33 11 -55 25 -22 13 -49 25 -60 25 -12 0 -39 9
-60 20 -22 12 -60 26 -85 32 -25 6 -55 17 -66 25 -12 7 -58 18 -102 23 -45 5
-95 16 -112 25 -17 9 -67 20 -111 25 -44 5 -95 16 -112 25 -19 10 -80 20 -149
26 -64 5 -138 17 -165 25 -39 14 -108 17 -378 19 -181 2 -366 0 -410 -5z
m-734 -1761 c13 -9 39 -20 56 -23 18 -4 42 -15 55 -25 13 -9 39 -24 58 -31 19
-8 63 -44 99 -80 87 -89 87 -89 101 -140 6 -25 19 -56 28 -70 16 -23 17 -104
20 -929 1 -591 -1 -908 -8 -915 -14 -14 -215 -8 -282 10 -31 8 -123 18 -205
23 -97 6 -162 14 -187 25 -22 9 -74 19 -115 22 -126 9 -151 29 -151 117 0 24
-11 63 -25 92 -13 28 -25 66 -25 86 0 20 -9 47 -19 61 -11 13 -23 38 -27 54
-4 16 -18 39 -31 51 -12 12 -23 31 -23 42 0 18 -17 43 -65 95 -11 12 -32 41
-47 64 -38 56 -155 170 -199 193 -20 10 -39 25 -42 34 -4 8 -13 15 -20 15 -8
0 -25 8 -38 19 -13 10 -40 23 -61 30 -20 7 -39 18 -41 25 -3 8 -28 19 -57 26
-28 7 -57 19 -66 27 -8 8 -47 19 -87 24 -39 5 -85 15 -102 21 -41 18 -359 18
-400 1 -16 -7 -61 -17 -99 -22 -37 -6 -76 -17 -85 -25 -9 -8 -41 -20 -70 -27
-29 -6 -55 -17 -58 -24 -2 -8 -21 -19 -41 -26 -21 -7 -48 -20 -61 -30 -13 -11
-30 -19 -38 -19 -7 0 -16 -6 -19 -14 -3 -7 -27 -28 -54 -45 -54 -35 -129 -108
-175 -170 -16 -23 -41 -54 -55 -70 -61 -70 -70 -84 -70 -102 0 -10 -9 -28 -21
-40 -11 -11 -25 -35 -31 -52 -6 -18 -19 -43 -30 -56 -10 -13 -18 -39 -18 -58
0 -19 -11 -58 -24 -86 -22 -46 -25 -71 -31 -222 -8 -203 5 -353 34 -410 12
-21 21 -54 21 -72 0 -33 55 -152 77 -166 7 -4 15 -23 19 -42 3 -20 12 -39 19
-43 13 -7 66 -75 98 -125 30 -46 170 -181 216 -207 24 -14 53 -34 65 -46 12
-11 35 -24 51 -28 17 -4 38 -16 48 -27 10 -10 26 -19 35 -19 10 0 35 -9 56
-21 21 -11 63 -25 94 -30 31 -6 70 -18 87 -27 45 -25 475 -25 520 0 17 9 56
21 87 27 31 5 73 19 94 30 21 12 46 21 55 21 9 0 27 8 40 19 13 10 35 22 49
26 14 4 34 17 46 29 12 12 41 32 65 46 55 31 179 155 241 240 27 36 56 74 67
85 10 11 22 34 26 50 3 17 13 37 20 45 29 33 75 131 75 161 0 18 11 55 24 83
19 40 25 76 31 169 9 142 14 152 91 144 29 -3 64 -13 78 -22 14 -10 62 -21
107 -26 44 -5 94 -16 111 -25 16 -8 69 -19 117 -24 48 -5 104 -16 125 -25 23
-10 85 -18 166 -22 71 -3 133 -9 138 -12 14 -9 26 -1034 14 -1193 -7 -94 -14
-131 -26 -143 -9 -9 -19 -34 -22 -56 -4 -21 -13 -44 -20 -50 -8 -6 -23 -31
-34 -55 -10 -24 -24 -44 -30 -44 -6 0 -15 -10 -21 -22 -18 -42 -91 -140 -123
-167 -11 -9 -56 -53 -100 -98 -45 -45 -134 -135 -199 -200 -723 -719 -1934
-1923 -2396 -2383 -781 -777 -1226 -1216 -1292 -1272 -70 -60 -117 -92 -158
-106 -19 -7 -39 -19 -45 -27 -6 -8 -35 -19 -65 -25 -30 -6 -63 -17 -72 -26
-24 -22 -214 -36 -369 -28 -92 5 -126 11 -167 30 -28 13 -60 24 -71 24 -27 0
-82 20 -82 30 0 5 -17 14 -37 21 -21 6 -49 20 -62 30 -13 11 -29 19 -36 19 -6
0 -21 10 -33 23 -11 12 -39 36 -62 52 -57 42 -369 340 -371 353 0 4 -52 57
-114 117 -63 61 -156 152 -207 204 -51 51 -154 154 -228 227 -74 74 -161 161
-193 193 -91 92 -332 333 -398 398 -32 32 -121 121 -198 198 -77 77 -178 178
-225 225 -46 47 -138 139 -204 205 -66 66 -157 157 -203 202 -182 178 -332
352 -343 398 -4 17 -16 38 -27 48 -11 10 -19 31 -19 50 0 18 -10 51 -22 72
-22 38 -23 51 -23 276 0 207 2 239 17 255 9 11 21 45 27 77 6 32 19 69 30 83
11 14 23 39 26 55 4 17 13 33 20 35 7 3 16 16 19 28 5 19 77 116 132 176 52
57 3958 3960 3983 3980 18 14 49 40 69 58 20 18 58 44 84 57 25 14 48 29 50
34 1 6 27 15 57 21 30 6 64 16 76 24 12 8 32 16 46 19 13 2 742 4 1619 3 1453
-1 1598 -2 1621 -17z m-1455 -1455 c28 -13 60 -24 72 -24 12 0 33 -11 48 -25
15 -14 32 -25 38 -25 44 -1 231 -174 280 -261 42 -73 76 -142 76 -155 0 -16
-21 -19 -35 -5 -6 5 -28 14 -50 21 -22 7 -47 18 -55 25 -8 7 -34 18 -58 25
-24 6 -45 17 -48 25 -3 7 -25 18 -50 24 -25 6 -47 18 -50 26 -3 7 -19 17 -35
20 -17 4 -42 18 -56 31 -28 26 -58 28 -58 4 0 -8 12 -21 28 -28 15 -7 27 -19
27 -27 0 -7 17 -19 38 -26 20 -6 40 -18 45 -25 4 -7 23 -18 42 -24 19 -6 35
-16 35 -21 0 -5 19 -19 43 -30 48 -23 110 -58 147 -81 14 -8 38 -19 53 -22 15
-4 41 -21 57 -39 29 -32 29 -33 30 -160 0 -95 -4 -137 -16 -165 -9 -20 -20
-63 -24 -96 -5 -32 -17 -68 -27 -80 -10 -11 -32 -47 -48 -79 -19 -36 -61 -90
-112 -140 -117 -118 -135 -134 -163 -142 -14 -4 -33 -15 -42 -25 -9 -10 -34
-21 -55 -25 -21 -3 -45 -13 -54 -21 -11 -10 -63 -20 -145 -29 -108 -11 -150
-11 -258 0 -82 9 -134 19 -145 29 -9 8 -33 17 -53 21 -21 4 -49 18 -63 31 -14
13 -32 24 -40 24 -17 0 -46 25 -158 136 -66 66 -92 101 -134 183 -29 56 -53
112 -53 125 0 13 -9 53 -20 88 -25 80 -28 263 -5 308 8 16 19 57 24 92 9 62
39 132 80 184 12 15 21 33 21 40 0 7 12 26 28 42 15 16 41 44 59 63 65 70 130
121 174 134 13 4 34 18 46 31 12 13 33 24 47 24 31 0 78 18 88 33 4 6 38 13
77 15 62 4 71 2 83 -17 16 -27 22 -26 52 4 24 24 28 24 123 18 73 -4 111 -12
149 -29z"/>
<path d="M14884 14585 c-5 -12 3 -27 27 -48 34 -31 108 -102 351 -331 71 -67
206 -198 302 -292 96 -94 182 -174 190 -177 9 -4 16 -13 16 -22 0 -8 4 -15 10
-15 5 0 68 -58 139 -130 100 -101 135 -130 155 -130 52 0 40 27 -54 117 -51
48 -122 117 -158 153 -37 35 -125 118 -197 185 -71 66 -160 150 -196 188 -37
37 -69 67 -72 67 -2 0 -93 88 -202 195 -108 107 -201 195 -206 195 -5 0 -14
11 -19 25 -5 14 -15 25 -22 25 -7 0 -23 3 -35 6 -16 4 -25 1 -29 -11z"/>
<path d="M14792 14488 c-14 -14 -16 -38 -4 -38 5 0 31 -21 58 -46 27 -26 105
-100 174 -164 175 -164 245 -231 444 -426 96 -94 182 -174 190 -177 9 -4 16
-13 16 -22 0 -8 4 -15 10 -15 5 0 68 -58 139 -130 100 -101 135 -130 155 -130
52 0 40 27 -54 117 -51 48 -122 117 -158 153 -37 35 -125 118 -197 185 -71 66
-160 150 -196 188 -37 37 -69 67 -72 67 -2 0 -93 88 -202 195 -108 107 -201
195 -206 195 -5 0 -14 11 -19 25 -5 14 -16 25 -24 25 -8 0 -20 2 -28 5 -7 3
-19 0 -26 -7z"/>
<path d="M14623 14374 c-35 -36 -63 -75 -63 -85 0 -20 34 -54 442 -451 274
-266 315 -305 523 -502 99 -94 186 -176 193 -183 21 -20 28 -17 92 47 41 41
60 68 60 84 0 28 -85 114 -550 556 -209 198 -267 255 -468 451 -84 82 -156
149 -160 149 -4 0 -35 -30 -69 -66z"/>
<path d="M14425 14151 c-11 -23 -13 -36 -4 -58 10 -26 234 -253 250 -253 4 0
87 -78 184 -172 351 -346 325 -324 396 -332 40 -4 66 -12 74 -23 7 -9 17 -13
23 -9 17 10 15 26 -2 26 -8 0 -18 10 -21 21 -4 12 -57 70 -119 130 -61 60
-193 189 -294 286 -100 98 -236 231 -301 296 -132 130 -158 142 -186 88z"/>
<path d="M14323 13996 c4 -22 20 -48 48 -75 24 -22 47 -41 51 -41 4 0 8 -7 8
-15 0 -8 5 -15 11 -15 6 0 17 -6 25 -14 8 -8 14 -19 14 -25 0 -6 6 -11 14 -11
8 0 21 -8 28 -18 7 -10 28 -27 47 -38 18 -10 108 -94 200 -186 92 -93 172
-168 176 -168 5 0 18 -12 30 -26 14 -18 26 -23 38 -18 24 9 18 36 -11 49 -12
5 -22 14 -22 19 0 15 -221 226 -236 226 -8 0 -19 11 -24 25 -5 14 -16 25 -25
25 -9 0 -20 11 -25 25 -5 14 -16 25 -25 25 -9 0 -20 11 -25 25 -5 14 -17 25
-25 25 -9 0 -19 8 -22 17 -4 10 -45 54 -92 99 -47 46 -95 92 -107 103 -12 12
-29 21 -39 21 -14 0 -17 -6 -12 -34z"/>
<path d="M14185 13878 c-33 -34 -68 -74 -77 -89 -16 -26 -16 -28 3 -45 10 -9
19 -23 19 -31 0 -7 5 -13 11 -13 6 0 17 -6 25 -14 8 -8 14 -19 14 -25 0 -6 5
-11 11 -11 6 0 17 -6 25 -14 8 -8 14 -19 14 -25 0 -6 5 -11 11 -11 6 0 17 -6
25 -14 8 -8 14 -19 14 -25 0 -6 5 -11 11 -11 18 0 98 -69 223 -193 108 -108
122 -118 148 -113 15 3 41 14 56 25 15 10 51 22 81 25 64 6 84 21 76 53 -5 23
-328 353 -346 353 -5 0 -9 7 -9 15 0 9 -11 20 -25 25 -14 5 -25 16 -25 25 0 9
-11 20 -25 25 -14 5 -25 16 -25 25 0 9 -11 20 -25 25 -14 5 -25 14 -25 20 0 6
-16 26 -35 45 -51 52 -77 47 -150 -27z"/>
<path d="M14007 13701 c-15 -10 -30 -20 -33 -23 -9 -9 7 -78 18 -78 6 0 54
-45 108 -99 54 -55 110 -106 126 -114 31 -17 172 -152 190 -183 16 -27 74 -30
104 -6 20 16 21 21 10 43 -16 30 -271 283 -295 292 -9 4 -19 16 -22 26 -3 11
-14 21 -25 24 -11 3 -22 14 -25 25 -3 11 -14 22 -25 25 -11 3 -22 15 -25 26
-3 12 -12 21 -19 21 -8 0 -19 9 -26 20 -15 24 -24 24 -61 1z"/>
<path d="M13891 13577 c-8 -11 1 -25 42 -65 178 -174 233 -223 253 -228 12 -3
24 -15 27 -26 3 -11 14 -22 25 -25 11 -3 22 -14 25 -25 3 -11 15 -22 26 -25
12 -3 21 -11 21 -17 0 -7 18 -27 41 -46 37 -30 42 -31 57 -17 14 15 13 19 -19
52 -19 19 -40 35 -47 35 -7 0 -17 11 -22 25 -5 14 -16 25 -25 25 -9 0 -20 11
-25 25 -5 14 -16 25 -25 25 -9 0 -20 11 -25 25 -5 14 -16 25 -25 25 -9 0 -20
11 -25 25 -5 14 -16 25 -25 25 -9 0 -20 11 -25 25 -5 14 -16 25 -25 25 -9 0
-20 11 -25 25 -5 14 -16 25 -25 25 -9 0 -20 11 -25 25 -5 14 -16 25 -25 25 -9
0 -20 11 -25 25 -7 19 -17 25 -39 25 -15 0 -34 -6 -40 -13z"/>
<path d="M13725 13419 c-13 -20 6 -59 47 -99 23 -22 46 -40 50 -40 4 0 8 -7 8
-15 0 -8 5 -15 11 -15 6 0 17 -6 25 -14 8 -8 14 -19 14 -25 0 -6 5 -11 11 -11
6 0 17 -6 25 -14 8 -8 14 -19 14 -25 0 -6 6 -11 13 -11 7 0 32 -16 54 -35 23
-19 43 -35 46 -35 9 0 137 -133 137 -142 0 -4 5 -8 12 -8 6 0 20 -8 30 -17 14
-12 21 -14 30 -5 9 9 7 16 -5 30 -9 10 -17 23 -17 29 0 6 -13 16 -30 22 -16 5
-30 17 -30 26 0 8 -11 20 -25 25 -14 5 -25 16 -25 25 0 9 -11 20 -25 25 -14 5
-25 16 -25 25 0 9 -11 20 -25 25 -14 5 -25 14 -25 20 0 6 -39 49 -87 95 -49
46 -109 104 -135 129 -47 47 -62 54 -73 35z"/>
<path d="M13558 13269 c-69 -72 -96 -119 -69 -119 5 0 65 -55 133 -122 68 -68
139 -135 159 -150 19 -14 95 -86 168 -158 83 -83 139 -130 149 -128 12 2 19
18 23 54 4 29 16 65 29 82 17 22 23 45 24 84 l0 54 -92 92 c-51 51 -97 92
-103 92 -5 0 -9 7 -9 15 0 9 -11 20 -25 25 -14 5 -25 16 -25 25 0 9 -11 20
-25 25 -14 5 -25 16 -25 25 0 9 -11 20 -25 25 -14 5 -25 16 -25 25 0 9 -11 20
-25 25 -14 5 -25 16 -25 25 0 9 -11 20 -25 25 -14 5 -25 16 -25 24 0 19 -7 23
-50 30 -33 6 -38 3 -112 -75z"/>
<path d="M14940 13214 c-36 -8 -91 -18 -124 -23 -32 -6 -65 -16 -75 -24 -9 -7
-47 -29 -86 -48 -38 -19 -79 -43 -91 -54 -11 -11 -35 -31 -53 -45 -42 -31 -90
-79 -116 -115 -11 -15 -31 -39 -44 -53 -12 -14 -28 -39 -34 -56 -5 -17 -18
-38 -27 -48 -9 -9 -20 -36 -24 -60 -4 -23 -16 -63 -28 -86 -19 -40 -21 -61
-20 -223 0 -158 2 -184 20 -221 11 -24 26 -61 32 -83 13 -46 77 -160 127 -224
50 -65 174 -171 199 -171 5 0 14 -8 21 -19 6 -10 27 -21 45 -25 19 -3 41 -15
51 -26 11 -13 29 -20 51 -20 37 0 87 -16 96 -30 8 -13 233 -24 313 -16 37 4
74 14 82 22 8 9 36 19 62 23 27 5 77 24 113 44 36 20 79 43 97 52 18 8 36 21
40 29 4 7 28 30 52 50 50 42 151 162 151 180 0 7 11 27 24 45 13 18 27 47 30
66 4 18 13 38 21 45 8 7 17 27 21 46 3 19 11 38 18 42 19 12 201 20 488 21
160 0 279 4 282 9 3 5 26 13 50 16 59 9 106 54 124 120 17 61 16 59 1 116 -18
68 -68 112 -138 122 -31 5 -216 5 -412 2 -196 -4 -368 -4 -383 0 -14 3 -26 12
-26 20 0 7 -9 23 -19 35 -11 12 -25 44 -31 71 -6 26 -20 56 -31 66 -10 9 -19
22 -19 29 0 15 -118 175 -129 175 -4 0 -19 9 -32 20 -54 46 -102 80 -115 80
-7 0 -19 8 -26 18 -7 11 -31 25 -53 32 -22 7 -47 19 -56 27 -10 8 -44 18 -78
23 -33 5 -66 12 -72 16 -33 20 -194 25 -269 8z m268 -255 c20 -11 51 -19 69
-19 19 0 37 -7 45 -18 7 -10 28 -24 47 -32 57 -23 195 -170 206 -219 3 -16 12
-32 20 -34 7 -3 16 -21 19 -39 4 -18 16 -72 28 -120 22 -90 20 -124 -13 -232
-5 -16 -9 -43 -9 -61 0 -19 -8 -39 -19 -49 -11 -10 -23 -31 -26 -47 -4 -17
-39 -60 -90 -111 -96 -95 -130 -122 -165 -132 -14 -4 -48 -18 -76 -32 -48 -23
-63 -25 -193 -25 -120 0 -147 3 -183 19 -24 11 -70 33 -103 48 -91 42 -214
171 -243 254 -7 18 -19 42 -28 51 -10 11 -20 50 -25 98 -5 43 -10 88 -11 98
-2 10 1 61 6 114 8 96 18 125 91 248 28 48 117 134 162 157 21 10 48 29 60 42
12 12 34 22 48 22 14 0 42 8 63 17 77 36 251 37 320 2z"/>
<path d="M13376 13069 c-9 -13 -16 -33 -16 -44 0 -32 23 -73 43 -79 10 -2 21
-13 24 -24 3 -11 14 -22 25 -25 11 -3 22 -14 25 -25 3 -11 14 -22 25 -25 11
-3 22 -14 25 -25 3 -11 14 -22 25 -25 11 -3 22 -14 25 -25 3 -11 15 -23 28
-26 13 -3 36 -19 52 -36 15 -16 31 -30 34 -30 3 0 82 -76 175 -168 195 -195
234 -216 234 -127 0 24 -29 87 -43 93 -4 2 -89 84 -190 183 -100 98 -237 233
-304 299 -132 129 -161 146 -187 109z"/>
<path d="M13198 12899 c-47 -47 -78 -87 -78 -99 0 -21 279 -310 299 -310 6 0
82 -71 170 -157 88 -87 250 -246 361 -353 110 -107 232 -225 270 -262 38 -38
73 -68 78 -68 6 0 24 14 42 30 42 39 37 71 -22 133 -47 49 -75 93 -95 146 -7
18 -19 39 -27 45 -8 6 -21 37 -30 69 -9 31 -20 57 -24 57 -5 0 -14 15 -20 33
-7 17 -38 55 -68 82 -31 28 -136 129 -234 225 -98 96 -194 189 -214 205 -19
17 -36 36 -36 43 0 7 -11 17 -25 22 -14 5 -25 16 -25 25 0 9 -11 20 -25 25
-14 5 -25 16 -25 25 0 9 -11 20 -25 25 -14 5 -25 16 -25 25 0 9 -11 20 -25 25
-14 5 -25 16 -25 25 0 9 -11 20 -25 25 -14 5 -25 16 -25 25 0 36 -47 10 -122
-66z"/>
</g>
</svg>
